# xmcd
#
# Track frame offsets:
#	150
#	15711
#	35152
#	52620
#	68877
#	84892
#	98957
#	114143
#	128930
#	146454
#	159975
#	176322
#	189802
#	202939
#	220614
#	234650
#
# Disc length: 3395 seconds
#
# Revision: 0
# Processed by: cddbd v1.5.2PL0 Copyright (c) Steve Scherf et al.
# Submitted via: audiograbber 1.83.01
#
DISCID=c20d4110
DTITLE=Various Artist - CDX 647
DYEAR=2017
DGENRE=Country
TTITLE0=Jon Pardi - Heartache On The Dance Floor
TTITLE1=Miranda Lambert - Tin Man 
TTITLE2=Randall Lee Richards - A Paradise Life
TTITLE3=Christian Davis - An American Soldiers Story 
TTITLE4=Tim McDonald - Dad
TTITLE5=Tony Stampley - Daily Bread
TTITLE6=Bubba T's Honky Tonk Revival - Drink All Day
TTITLE7=Mallory Johnson - Good Mistake To Make
TTITLE8=Greg Hudik - Mama's Love
TTITLE9=Anthony K - Marry Me
TTITLE10=Joe Schmidt - Over Time
TTITLE11=McKenna Faith - Poison
TTITLE12=Derek Johnson - Real Cool Kinda Hot
TTITLE13=Tim Elliott - Start Pourin' Whiskey On It
TTITLE14=JP Vance - This Is America 
TTITLE15=Mondo - Time To Wine
EXTD=
EXTT0=
EXTT1=
EXTT2=
EXTT3=
EXTT4=
EXTT5=
EXTT6=
EXTT7=
EXTT8=
EXTT9=
EXTT10=
EXTT11=
EXTT12=
EXTT13=
EXTT14=
EXTT15=
PLAYORDER=
